<?xml version="1.0" encoding="UTF-8"?>
<!DOCTYPE svg PUBLIC "-//W3C//DTD SVG 1.1//EN" "http://www.w3.org/Graphics/SVG/1.1/DTD/svg11.dtd">
<!-- Creator: CorelDRAW (Versão de avaliação) -->
<svg xmlns="http://www.w3.org/2000/svg" xml:space="preserve" width="114.13mm" height="69.6814mm" version="1.1" style="shape-rendering:geometricPrecision; text-rendering:geometricPrecision; image-rendering:optimizeQuality; fill-rule:evenodd; clip-rule:evenodd"
viewBox="0 0 11413.06 6968.15"
 xmlns:xlink="http://www.w3.org/1999/xlink"
 xmlns:xodm="http://www.corel.com/coreldraw/odm/2003">
 <defs>
  <style type="text/css">
   <![CDATA[
    .fil1 {fill:#FD7502}
    .fil0 {fill:white}
   ]]>
  </style>
 </defs>
 <g id="Camada_x0020_1">
  <metadata id="CorelCorpID_0Corel-Layer"/>
  <g id="_2672855547904">
   <g>
    <path class="fil0" d="M2490.79 6542.1c64.41,-29.48 170.2,-333.77 192.27,-418.85 -38.78,2 -188.59,68.5 -225.54,93.65 -8.78,93.85 10.84,245.64 33.27,325.2z"/>
    <path class="fil0" d="M5466.34 3492.38c-33.88,148.18 -196.56,423.18 -271,548.03 -42.63,71.51 -303.47,487.46 -371.75,428.03 -115.67,-100.65 335.36,-1057.31 642.75,-976.06zm42.65 -123.72c-453.58,-376.81 -899.92,431.86 -1000.69,858.12 -31.32,132.52 -14.62,159.52 -83.06,259.79 -355.7,521.14 -70.9,-361.33 -25.53,-472.85 108.29,-266.2 233.43,-428.09 84.16,-564.66 -207.84,-190.18 -390.28,80.11 -473.75,194.78 -123.38,169.47 -233.84,410.2 -297.03,500.86 30.51,-196.75 226.33,-489.94 57.36,-638.06 -42.89,-37.6 -113.35,-81.82 -196.91,-70.67l-197.09 801.26c-38.05,153.43 -143.49,491.55 -47.54,632.9 32.73,48.2 82.68,97.61 165.89,90.92 30.43,-51.87 89.3,-249.19 120.28,-324.27 82.56,-200.07 376.19,-765.7 505.32,-834.41 -57.13,236.43 -233.41,607.76 -198.91,874.61 32.63,252.41 280.9,330.03 441.59,118.28l119.28 -154.19c32.17,41.58 27.96,71.83 75.71,121.76 32.73,34.23 79.21,63.64 143.28,63.54 109.4,-0.17 192.6,-102.9 247.28,-158.36 115.64,-117.28 297.05,-443.88 337.64,-483.13 -16.37,111.42 -36.49,249.68 5.2,357.2 31.33,80.79 120.5,179.85 226.81,173.42 88.45,-5.36 164.81,-120.8 210.83,-188.98 24.36,-36.1 137.67,-216.23 145.2,-252.65 2.44,96.63 -41.02,145.65 22.44,252.97 32.23,54.5 123.33,119.91 212.78,97.11 5.8,-7.05 78.74,-288.67 92.63,-328.33 61.3,-175.13 178.34,-404.74 275.74,-560.65 22.51,-36.02 153.43,-238.12 173.72,-227.24 -54.75,142.13 87.29,290.1 217.22,284.77 38.09,-204.99 93.46,-358.62 200.12,-530.79 10.71,-17.3 53.22,-79.99 58.47,-94.39 26.2,-71.81 -161.49,-219.35 -366.19,-32.89 -83.85,76.37 -193.08,234.45 -256.48,332.8l-121.44 186.41c15.37,-85.1 112.74,-277.55 81.19,-359 -38.52,-99.46 -316.84,-160.92 -332.18,-87.52 -2.38,11.39 -2.74,11.61 -4.2,24.84 -1.91,17.18 -2.08,36.72 -4.17,55.42 -17.79,158.94 -114.85,473 -175.71,602.17 -84.19,178.61 -161.49,337.02 -281.24,488.95 -20.21,25.64 -28.29,42.84 -73.64,44.24 -45.68,-339.39 463.01,-1500.13 605.9,-1793.63 33.84,-69.52 69.4,-127.83 102.58,-192.5 75.43,-147.03 -319.26,-204.14 -392.63,-182.78 -38.42,11.2 -44.89,117.07 -79.66,224.64 -49.97,154.61 -105.46,300.5 -159.08,449.4 -26.91,74.75 -55.16,147.95 -81.45,222.93 -18.99,54.15 -55.79,175.78 -80.04,217.86z"/>
    <path class="fil0" d="M2300.41 4216.51c22.08,-42.01 64.33,-92.56 93.69,-135.56 75.98,-111.26 638.01,-843.02 716.54,-895.42l-352.87 969.08 -457.36 61.9zm870.88 -69.41c75.05,-348.85 468.31,-1343.14 707.3,-1614.17 92.11,-104.47 -154.63,-159.56 -270.22,-145.38 -111.18,13.63 -127.99,64.96 -187.5,115.65 -97.21,82.8 -353.64,366.81 -455.13,476.41l-285.23 332.75c-44.46,52.86 -92.05,110.55 -137.55,166.69 -201.38,248.52 -424.87,524.16 -611.09,786.2 -31.41,44.19 -36.49,34.38 -101.45,50.61 -514.08,128.5 -1130.2,317.24 -1543,614.98 -524.48,378.29 -211.77,676.81 2.88,657.19 49.13,-65.34 34.39,-204.49 298.85,-412.59 104.25,-82.04 118.41,-95.66 245.82,-172.23 184.94,-111.14 566.3,-294.56 775.14,-352.03l-302.32 359c-113.89,121.94 -204.79,230.48 -317.42,338.27 -259.93,248.77 -445.58,407.68 -792.99,527.01 7.44,66.42 77.12,131.79 121.01,161.13 222.23,148.57 420.9,59.15 608.41,-76.83 107.51,-77.96 214.5,-175.36 293.38,-267.32 320.91,-374.06 434.61,-545.6 723.3,-959.4 63.11,-90.46 127.99,-215.44 194.33,-232.92 153.35,-40.4 427.7,-108.58 567.27,-125.43 -42.77,229.77 -125.54,466.33 -172.92,708.08 -101.74,519.03 91.63,292.43 384.87,234.72 10.76,-138.75 167.54,-951.63 218.91,-1007.1 53.13,-51.67 160.29,-11.71 149.49,-121.52 -40.41,-30.29 -61.12,-24.9 -114.14,-41.77z"/>
    <path class="fil0" d="M1286.44 6089.87c-2.15,139.85 168.31,280.49 281.88,322.64 87.21,32.38 144.65,-21.75 217.93,-58.98 302.2,-153.5 713.16,-343.78 1027.48,-465.4 574.23,-222.19 1170.21,-431 1803.85,-584.01 676.02,-163.24 1344.42,-275.05 2060.75,-331.11 385.33,-30.16 769.15,-46.88 1159.96,-36.99 192.78,4.89 957.79,42.74 1084.07,102.52 -209.31,34.05 -705.65,97.56 -890.93,180.25 13.05,7.18 701.72,-21.89 795.08,-22.05 495.99,-0.88 1042.37,54.41 1523.61,152.35 117.68,23.95 225.26,50.98 338.56,80.64 101.62,26.59 215,67.85 310.43,88.53 -26.97,-122.33 -251.64,-337.54 -343.5,-398.4 -480.31,-318.25 -1232.09,-390.56 -1819.42,-419.43 -1660.13,-81.61 -3741.29,193.76 -5333.6,621.64 -701.27,188.44 -1048.23,292.7 -1699.96,543.51 -193,74.28 -384.4,174.33 -516.19,224.29z"/>
    <path class="fil0" d="M7903.57 3272.51c-28.59,69.98 -110.56,200.21 -149.84,265.27 -44.49,73.68 -539.47,859.33 -555.24,607.44 -13.31,-212.56 297.13,-775.26 573.48,-893.29 36.75,-15.69 161.02,-51.45 131.6,20.58zm1302.89 -118.19c-38.8,178.18 -621.48,1074.74 -683.56,922.79 -47.13,-115.37 174.72,-521.3 225.93,-599.54 70.31,-107.4 275.44,-386.36 457.63,-323.25zm47.83 -123.64c-33.42,-8.82 -13.99,-2.99 -43.8,-30.34 -13.96,-12.8 -28.98,-23.67 -50.08,-35.47 -430.04,-240.44 -824.97,484.72 -935.59,843.46 -47.28,153.33 -56.19,199.33 -182.67,331.45 -26.26,27.42 -51.51,69.43 -93.25,65.05 -98.49,-189.84 353.63,-991.98 353.73,-993.28 6.79,-86.44 -177.72,-160.87 -312.57,-147.69l-43.5 103.91c-49.19,-96.45 -176.92,-192.7 -336.32,-153.05 -378.94,94.3 -803.04,868.31 -751.37,1262.17 17.81,135.67 104.78,267.01 255.99,248.57 198.45,-24.18 415.42,-412.09 502.94,-504.67 -6.32,107.21 -26.87,188.25 15.23,290.21 28.63,69.33 93.55,138.41 175.78,157.64 164.78,38.55 298.4,-179.71 371.32,-263.53 24.68,35.63 35.23,201.53 176.57,238.33 265.88,69.21 547.47,-529.41 646.42,-619.23 -18.08,116.16 -55.86,250.23 -33.72,377.46 20.02,115.02 91.89,209.29 195.63,231.16 116.77,24.61 201.19,-106.26 247.1,-168.21 45.73,-61.71 149.18,-207.58 79.66,-288.99 -71.92,46.1 -98.23,177.8 -200.47,178.72 -65.84,-204.21 336.61,-1104.91 423.11,-1308.15 108.59,-255.14 231.14,-495.41 360.67,-732.82 85.24,-156.28 -263.17,-255.86 -399.25,-227.85 -35.76,93.25 -60.07,200.99 -94.17,295.78 -35.44,98.49 -68.72,188.05 -104.85,285.06l-222.54 564.31z"/>
    <path class="fil0" d="M10128.29 3860.76c198.78,348.73 -161.93,536.7 -269.78,506.67 -180.32,-50.21 44.9,-431.72 269.78,-506.67zm-107.46 -124.89c-40.59,43.93 -290.7,124.91 -426.48,378.57 -217.85,406.95 308.73,604 742.01,323.37 120.4,-77.99 223.98,-224.78 225.74,-388.12 1.69,-156.45 -50.71,-206.09 -95.09,-313.82 98.29,-53.21 480.28,-55.57 623.17,74.61 73.62,67.08 58.28,67.79 76.11,179.16 128.15,1.57 239.44,-91.92 246.43,-215.94 7.64,-135.53 -116.76,-208.79 -228.42,-238.18 -357.33,-94.04 -583.84,30.8 -817.83,64.67l-212.15 -241.53c-110.67,-167.84 18.04,-323.37 144.48,-384.18 38.91,-18.71 90.4,-39.59 116.54,-8.99 68.66,103.74 -135.64,240.68 -69,371.63 77.21,-0.24 201.25,-120.73 234.73,-156.77 304.94,-328.28 -63.3,-579.63 -453.6,-396.06 -384.48,180.83 -505.36,525.42 -198.12,846.78 34.03,35.59 59.03,71.99 91.48,104.8z"/>
    <path class="fil0" d="M3067.11 1615.05c-23.3,18.63 -59.79,19.31 -90.19,23.78l-733.54 124.12c-237.76,42.92 -184.52,8.2 -267.13,217.48 -29.02,73.53 -126.46,295.45 -134.96,354.94 141.9,-30.31 355.05,-97.12 541.16,-138.42 136.72,-30.33 447.44,-106.44 577.61,-107.63l-201.19 859.31c32.85,-16.7 356.75,-366.23 408.96,-413.25l101.4 -97.98c31.6,-30.28 85,-56.54 101.15,-107.28 28.55,-89.7 54.36,-240.42 91.71,-317.26 118.64,-54.62 1015.82,-94.32 1208.52,-96.39 33.48,-75.06 88.29,-329.15 108.46,-426.94 -255.8,-10.61 -620.84,9.36 -883.53,34.74 -76,7.33 -215.35,29.19 -284.92,25.74 53.76,-174.9 296.86,-761.83 311.92,-820.58 -126.65,14.73 -251.36,34.92 -373.03,57.3 -271.56,49.94 -284,22.96 -308.62,130.69l-173.78 697.63z"/>
   </g>
   <g>
    <path class="fil1" d="M516.13 4563.34l167.28 -73.78c1.03,-94.11 -29.11,-150.8 -17.4,-340.84 6.23,-101.07 32.22,-226.39 59.02,-310.03 160.7,-501.52 481.13,-827 874.62,-1131.72 18.94,-14.66 33.79,-24.93 55.47,-39.51l52.71 -43.77c-29.1,-30.26 -56.36,-61.3 -96.23,-73.89 -119.53,65.77 -337.27,244.81 -441.69,344.98 -453.47,434.99 -789.17,932.18 -653.78,1668.56z"/>
    <path class="fil1" d="M4749.83 1311.89c8.05,8.94 0.73,4.5 15.6,12.25l90.86 22.3c197.42,40.03 192.7,9.02 405.99,-2.8 461.47,-25.59 703.68,-34.51 1168.63,5.92 48.86,4.25 243.86,33.51 270.56,22.44 18.12,-7.51 59.14,-59.96 74.7,-76.22 27.35,-28.57 56.62,-47.63 74.29,-82.08 -371.57,-33.71 -703.77,-58.38 -1084.64,-37.36 -179.4,9.9 -901.5,75.09 -1015.99,135.55z"/>
    <path class="fil1" d="M6706.94 5615.12c-4.89,-43.6 -3.6,-104.43 14.31,-142.74 56.49,-2.28 141.11,-24.44 179.89,19.32 55.67,117.26 -111.75,119.82 -194.2,123.42zm234.24 107.46c59.29,-51.38 97.17,-59.23 124.15,-154.45 20.72,-73.11 7.26,-166.83 -34.8,-207.49 -79,-76.34 -341.52,-43.82 -464.82,-25.38l-57.61 688.53 162 -20.49 22.06 -240.75 75.46 -3.92 103.47 235.87c55.84,3.58 138.61,3.68 181.32,-15.26 -27.7,-67.5 -99.5,-194.52 -111.23,-256.66z"/>
    <path class="fil1" d="M6169.76 5751.11c-14.09,97.64 -52.95,179.58 -157.14,182.8 -119.69,3.71 -114.62,-133.59 -99.76,-235.41 14.06,-96.5 55.8,-176.25 157.23,-178.04 120.9,-2.12 114.24,129.7 99.67,230.65zm168.28 -28.52c28.19,-220.85 -49.52,-385.48 -286.19,-352.52 -183.3,25.55 -283.17,162.16 -304.82,352.69 -25.26,222.35 47.26,400.4 293.03,360.38 182.78,-29.77 273.25,-166.88 297.98,-360.55z"/>
    <path class="fil1" d="M4853.8 5724.03c21.2,-46.91 58.47,-84.03 75.62,-136.64 -88.77,-45.97 -166.75,-59.31 -285.9,-26.02 -256.59,71.67 -258.27,324.93 -159.92,388.1 34.77,22.35 82.71,27.07 131.62,30.25 24.85,1.62 59.21,0.79 82.31,3.93 93.69,12.75 74.63,114.9 -53.26,130.75 -102.91,12.76 -119.92,-18.29 -193.56,-32.06 -18.84,46.8 -63,83.56 -75.36,135.82 105.01,44.83 160.11,71.36 300.44,40.04 261.22,-58.29 290.36,-312.13 196.57,-393.55 -72.12,-62.6 -216.51,-12.21 -277.31,-66 -14.22,-145.75 185.34,-85.77 258.75,-74.62z"/>
    <path class="fil1" d="M5392.39 6148.35c8.39,-148.15 21.14,-297.05 31.66,-444.5 8.84,-123.79 -8.16,-101.28 123.48,-114.24 51.35,-5.05 85.85,22.6 74.56,-160.55 -80.94,7.02 -479.32,46.46 -518.38,78.82 -19.32,27.24 -14.45,99.6 -14.65,140.77l179 -21.11 -33.89 541.93 158.22 -21.12z"/>
    <path class="fil1" d="M10760.68 4971.63l138.11 123.39c78.4,-103.33 155.94,-394.38 171.91,-539.95 18.11,-165.02 -2.2,-538.96 -172.98,-535.07 0.02,80.98 23.84,170.19 26.77,257.42 3.02,89.85 -3.19,177.81 -18.08,265.55 -36.19,213.24 -82.4,267.19 -145.73,428.66z"/>
    <path class="fil1" d="M7013.13 2861.79c-34.47,-56.81 -144.33,-130.12 -201.11,-296.01 -43.81,-128.02 -63.27,-296.4 -4.24,-422.62 27.03,254.21 27.57,317.58 160.76,494.31 60.07,79.7 259.18,230.38 420.94,243.57 -54.17,-58.86 -94.21,-92.36 -140.95,-162.49 -43.87,-65.82 -71.81,-131.5 -95.61,-217.95 -48.95,-177.81 -21.2,-365.19 50.35,-520.61 46.52,-101.03 117.04,-193.97 187.34,-269.51 27.27,-29.29 55.43,-50.96 81.93,-79.51 216.63,-233.37 142.09,-190.83 258.79,-367.86 21.18,344.81 -192.71,592.84 -47.43,953.82 36.81,91.44 93.26,176.95 154.49,214.65 -27.09,-191.6 -23.74,-290.15 165.84,-430.69 142.98,-106.01 212.13,-146.37 277.25,-351.74 61.66,70.78 85.44,207.04 62.27,321.02 -23.48,115.47 -83.4,189.91 -123.09,285.02 -104.68,250.83 -9.78,482.72 157.57,574.46 -10.14,-121.63 -31.58,-174.07 32.41,-279.63 41.51,-68.45 109.29,-132.25 208.45,-156.01 -33.55,53.37 -87.7,91.14 -117.68,170.1 -19.36,51.04 -38.26,152.5 -13.83,207.89 18.29,41.43 0.94,8.98 18.46,27.86 58.92,-300.27 356.89,-278.96 505.56,-551.91 64.37,-118.21 83.16,-283.67 48.56,-427.94 -27.5,-114.7 -112.67,-300.89 -176.25,-354 -0.68,201.11 12.05,244.34 -71.79,411.57 -36.28,72.35 -173.21,225.04 -247.42,239.99 16.86,-52.84 54.23,-121.85 76.63,-182.77 24.98,-67.96 44.67,-135.96 57.85,-206.48 27.84,-148.9 28.83,-328.86 -10.78,-477.75 -38.66,-145.34 -94.73,-260.62 -166.23,-365.98 -50.48,-74.37 -197.91,-250.63 -270.77,-276.08 37.14,128.15 74.5,182.86 76.12,342.15 3.91,383.73 -262.5,554.66 -305.27,433.74 -48.7,-137.72 204.15,-564.03 -130.21,-1020.01 -90.04,-122.79 -285.45,-303.19 -463.61,-364.39 53.57,149.9 118.03,216.25 107.4,447.05 -16.38,355.37 -233.52,574.71 -453.22,784.31 -77.58,74.02 -130.48,111.23 -219.5,208.29 -143.11,156.01 -350.29,459.6 -326.38,785.19 11.86,161.6 69.09,304.96 147.58,402.3 56.14,69.63 204.78,212.95 328.82,234.65z"/>
    <path class="fil1" d="M6088.86 6968.14c866.96,1.29 1773.96,-112.36 2544.9,-354.15 644.66,-202.2 1440.53,-531.06 1891.32,-994.34 -47.4,-16.04 -101.08,-20.83 -150.15,-29.85 -85.87,-15.77 -80.04,-28.87 -138.56,21.67 -168.02,145.11 -462.19,313.66 -662.86,420.5 -291.92,155.42 -686,302.41 -1034.28,401.57 -1559.65,444.08 -3340.4,427.34 -4933.01,61.58l-703.68 -182.79c-20.36,41.88 -48.3,67.34 -64.86,113.43 910.05,363.23 2168.34,540.77 3251.18,542.38z"/>
    <path class="fil1" d="M7468.62 5439.44c46.84,-28.47 164.13,-15.02 227.59,-15.39 67.74,-0.4 67.36,20.01 77.5,-152.55l-458.67 17.35 -67.29 684.38 352.58 -13.55c130.02,-5.75 110.04,18.64 122.05,-153.89l-296.9 10.37 11.58 -122.6 265.22 -12.87 11.03 -141.1 -260.43 5.74 15.74 -105.89z"/>
   </g>
  </g>
 </g>
</svg>
