<?xml version="1.0" encoding="UTF-8"?>
<!DOCTYPE svg PUBLIC "-//W3C//DTD SVG 1.1//EN" "http://www.w3.org/Graphics/SVG/1.1/DTD/svg11.dtd">
<!-- Creator: CorelDRAW (Versão de avaliação) -->
<svg xmlns="http://www.w3.org/2000/svg" xml:space="preserve" width="210mm" height="210mm" version="1.1" style="shape-rendering:geometricPrecision; text-rendering:geometricPrecision; image-rendering:optimizeQuality; fill-rule:evenodd; clip-rule:evenodd"
viewBox="0 0 20985.75 20985.75"
 xmlns:xlink="http://www.w3.org/1999/xlink"
 xmlns:xodm="http://www.corel.com/coreldraw/odm/2003">
 <defs>
  <style type="text/css">
   <![CDATA[
    .fil0 {fill:none}
    .fil1 {fill:white;fill-rule:nonzero}
   ]]>
  </style>
 </defs>
 <g id="Camada_x0020_1">
  <metadata id="CorelCorpID_0Corel-Layer"/>
  <rect class="fil0" width="20985.75" height="20985.75"/>
  <path class="fil1" d="M16951.45 10645.7c0,3741.31 -2562.07,6403.86 -6345.69,6403.86 -3627.62,0 -6557.21,-2929.6 -6557.21,-6557.22 0,-3627.62 2929.59,-6557.22 6557.21,-6557.22 1766.22,0 3252.17,647.79 4397.03,1715.98l-1784.72 1715.97c-2334.68,-2252.72 -6676.2,-560.53 -6676.2,3125.26 0,2287.1 1827.03,4140.57 4063.88,4140.57 2596.45,0 3569.46,-1861.41 3722.81,-2826.48l-3722.81 0 0 -2255.37 6242.58 0c60.81,335.79 103.11,658.37 103.11,1094.64z"/>
 </g>
</svg>
