<?xml version="1.0" encoding="UTF-8"?>
<!DOCTYPE svg PUBLIC "-//W3C//DTD SVG 1.1//EN" "http://www.w3.org/Graphics/SVG/1.1/DTD/svg11.dtd">
<!-- Creator: CorelDRAW (Versão de avaliação) -->
<svg xmlns="http://www.w3.org/2000/svg" xml:space="preserve" width="210mm" height="210mm" version="1.1" style="shape-rendering:geometricPrecision; text-rendering:geometricPrecision; image-rendering:optimizeQuality; fill-rule:evenodd; clip-rule:evenodd"
viewBox="0 0 20985.75 20985.75"
 xmlns:xlink="http://www.w3.org/1999/xlink"
 xmlns:xodm="http://www.corel.com/coreldraw/odm/2003">
 <defs>
  <style type="text/css">
   <![CDATA[
    .fil0 {fill:none}
    .fil1 {fill:white;fill-rule:nonzero}
   ]]>
  </style>
 </defs>
 <g id="Camada_x0020_1">
  <metadata id="CorelCorpID_0Corel-Layer"/>
  <rect class="fil0" width="20985.75" height="20985.75"/>
  <path class="fil1" d="M10507.93 7451.7c-1678.97,-5.29 -3043.29,1353.75 -3048.58,3032.71 -5.29,1678.97 1353.75,3043.29 3032.71,3048.58 1678.97,5.29 3043.29,-1353.75 3048.58,-3032.71 5.29,-1678.97 -1353.75,-3043.29 -3032.71,-3048.58zm-15.87 1068.19c1089.35,-5.29 1975.1,875.18 1980.39,1964.52 5.29,1089.35 -875.18,1975.1 -1964.52,1980.39 -1089.35,5.29 -1975.1,-875.18 -1980.39,-1964.52 -5.29,-1089.35 875.18,-1975.1 1964.52,-1980.39zm2469.53 -1192.46c0,-391.32 317.28,-708.61 708.6,-708.61 391.32,0 708.61,317.28 708.61,708.61 0,391.31 -317.28,708.6 -708.61,708.6 -391.31,0 -708.6,-317.28 -708.6,-708.6zm3429.32 719.17c-44.95,-949.21 -261.76,-1790.01 -957.14,-2482.74 -692.74,-692.74 -1533.55,-909.55 -2482.75,-957.15 -978.3,-55.52 -3910.53,-55.52 -4888.83,0 -946.57,44.95 -1787.37,261.76 -2482.75,954.5 -695.38,692.74 -909.54,1533.54 -957.14,2482.75 -55.52,978.3 -55.52,3910.53 0,4888.82 44.95,949.22 261.76,1790.01 957.14,2482.75 695.39,692.74 1533.55,909.55 2482.75,957.14 978.3,55.53 3910.53,55.53 4888.83,0 949.21,-44.95 1790.01,-261.75 2482.75,-957.14 692.73,-692.74 909.54,-1533.54 957.14,-2482.75 55.52,-978.29 55.52,-3907.89 0,-4886.18zm-1263.85 5935.87c-206.24,518.23 -605.49,917.48 -1126.37,1126.37 -779.99,309.35 -2630.81,237.96 -3492.77,237.96 -861.95,0 -2715.43,68.74 -3492.78,-237.96 -518.23,-206.24 -917.48,-605.49 -1126.36,-1126.37 -309.36,-779.99 -237.97,-2630.81 -237.97,-3492.78 0,-861.95 -68.74,-2715.43 237.97,-3492.77 206.23,-518.24 605.48,-917.49 1126.36,-1126.37 779.99,-309.35 2630.82,-237.96 3492.78,-237.96 861.95,0 2715.43,-68.74 3492.77,237.96 518.24,206.24 917.49,605.49 1126.37,1126.37 309.35,779.99 237.96,2630.81 237.96,3492.77 0,861.96 71.39,2715.44 -237.96,3492.78z"/>
 </g>
</svg>
