<?xml version="1.0" encoding="UTF-8"?>
<!DOCTYPE svg PUBLIC "-//W3C//DTD SVG 1.1//EN" "http://www.w3.org/Graphics/SVG/1.1/DTD/svg11.dtd">
<!-- Creator: CorelDRAW (Versão de avaliação) -->
<svg xmlns="http://www.w3.org/2000/svg" xml:space="preserve" width="210mm" height="210mm" version="1.1" style="shape-rendering:geometricPrecision; text-rendering:geometricPrecision; image-rendering:optimizeQuality; fill-rule:evenodd; clip-rule:evenodd"
viewBox="0 0 20985.75 20985.75"
 xmlns:xlink="http://www.w3.org/1999/xlink"
 xmlns:xodm="http://www.corel.com/coreldraw/odm/2003">
 <defs>
  <style type="text/css">
   <![CDATA[
    .fil0 {fill:none}
    .fil1 {fill:white;fill-rule:nonzero}
   ]]>
  </style>
 </defs>
 <g id="Camada_x0020_1">
  <metadata id="CorelCorpID_0Corel-Layer"/>
  <rect class="fil0" width="20985.75" height="20985.75"/>
  <path class="fil1" d="M16414.25 9275.03c-1163.38,2.65 -2300.32,-359.59 -3246.89,-1036.47l0 4724.89c0,875.18 -267.05,1729.2 -766.77,2448.38 -499.72,719.18 -1205.68,1269.14 -2025.32,1575.85 -819.65,306.7 -1713.34,356.94 -2562.07,140.13 -848.73,-216.81 -1610.22,-684.8 -2186.62,-1343.18 -576.41,-658.36 -933.35,-1480.65 -1031.18,-2350.54 -97.83,-869.89 76.68,-1747.71 491.8,-2517.13 415.11,-769.41 1057.61,-1393.39 1840.25,-1790 782.63,-396.6 1663.09,-542.02 2530.34,-423.04l0 2376.99c-396.61,-124.28 -822.3,-121.63 -1216.26,10.57 -393.95,132.2 -737.68,386.03 -978.29,721.82 -240.61,335.79 -370.17,742.98 -367.52,1160.73 2.64,417.76 137.49,819.65 383.38,1155.45 245.89,335.79 592.27,584.33 988.87,711.25 396.61,126.91 822.3,126.91 1216.26,-2.65 393.96,-129.55 740.33,-380.74 983.58,-716.53 243.23,-335.79 375.45,-742.98 375.45,-1158.08l0 -9238.26 2326.75 0c-2.65,195.66 15.86,393.96 50.24,586.97 81.96,430.98 248.54,843.45 494.43,1208.33 245.89,364.87 563.18,676.87 930.7,914.84 526.16,346.36 1142.22,531.45 1771.51,531.45l0 2310.89 -2.64 -2.65z"/>
 </g>
</svg>
