<?xml version="1.0" encoding="UTF-8"?>
<!DOCTYPE svg PUBLIC "-//W3C//DTD SVG 1.1//EN" "http://www.w3.org/Graphics/SVG/1.1/DTD/svg11.dtd">
<!-- Creator: CorelDRAW (Versão de avaliação) -->
<svg xmlns="http://www.w3.org/2000/svg" xml:space="preserve" width="210mm" height="210mm" version="1.1" style="shape-rendering:geometricPrecision; text-rendering:geometricPrecision; image-rendering:optimizeQuality; fill-rule:evenodd; clip-rule:evenodd"
viewBox="0 0 20985.75 20985.75"
 xmlns:xlink="http://www.w3.org/1999/xlink"
 xmlns:xodm="http://www.corel.com/coreldraw/odm/2003">
 <defs>
  <style type="text/css">
   <![CDATA[
    .fil0 {fill:none}
    .fil1 {fill:white;fill-rule:nonzero}
   ]]>
  </style>
 </defs>
 <g id="Camada_x0020_1">
  <metadata id="CorelCorpID_0Corel-Layer"/>
  <rect class="fil0" width="20985.75" height="20985.75"/>
  <path class="fil1" d="M14641.37 6291.5c-1107.85,-1110.5 -2583.23,-1721.27 -4151.14,-1721.27 -3236.3,0 -5869.76,2633.46 -5869.76,5869.76 0,1033.82 269.7,2043.84 782.64,2934.89l-832.87 3040.65 3112.04 -817.02c856.67,468 1821.74,713.9 2805.33,713.9l2.64 0c3233.66,0 5925.3,-2633.46 5925.3,-5869.76 0,-1567.92 -666.3,-3040.65 -1774.16,-4151.14zm-4151.14 9032.04c-877.81,0 -1737.13,-235.32 -2485.39,-679.52l-177.15 -105.76 -1845.54 483.85 491.79 -1800.59 -116.33 -185.08c-489.15,-777.34 -745.62,-1673.67 -745.62,-2596.45 0,-2688.98 2189.26,-4878.25 4880.9,-4878.25 1303.51,0 2527.7,507.66 3447.83,1430.43 920.13,922.76 1485.95,2146.95 1483.3,3450.47 0,2691.63 -2244.79,4880.9 -4933.78,4880.9zm2675.77 -3654.06c-145.42,-74.04 -867.25,-428.34 -1002.09,-475.93 -134.85,-50.24 -232.68,-74.04 -330.51,74.03 -97.83,148.07 -378.1,475.93 -465.35,576.4 -84.61,97.83 -171.86,111.05 -317.28,37.01 -861.95,-430.98 -1427.78,-769.42 -1996.24,-1745.07 -150.72,-259.11 150.71,-240.61 430.98,-801.15 47.59,-97.82 23.79,-182.44 -13.22,-256.47 -37.01,-74.03 -330.51,-795.86 -452.13,-1089.34 -118.98,-285.56 -240.61,-245.9 -330.51,-251.19 -84.61,-5.29 -182.44,-5.29 -280.27,-5.29 -97.82,0 -256.47,37.01 -391.31,182.44 -134.85,148.07 -512.94,502.37 -512.94,1224.19 0,721.83 526.16,1419.86 597.55,1517.68 74.03,97.83 1033.82,1578.49 2506.55,2215.71 930.7,401.9 1295.57,436.26 1760.92,367.52 282.92,-42.3 867.25,-354.3 988.87,-698.03 121.63,-343.73 121.63,-637.22 84.61,-698.03 -34.38,-66.1 -132.2,-103.12 -277.62,-174.5z"/>
 </g>
</svg>
